<?xml version="1.0" standalone="no"?>
<!DOCTYPE svg PUBLIC "-//W3C//DTD SVG 20010904//EN"
 "http://www.w3.org/TR/2001/REC-SVG-20010904/DTD/svg10.dtd">
<svg version="1.0" xmlns="http://www.w3.org/2000/svg"
 width="164.000000pt" height="164.000000pt" viewBox="0 0 164.000000 164.000000"
 preserveAspectRatio="xMidYMid meet">
<metadata>
Created by potrace 1.11, written by Peter Selinger 2001-2013
</metadata>
<g transform="translate(0.000000,164.000000) scale(0.100000,-0.100000)"
fill="#000000" stroke="none">
<path d="M20 810 l0 -800 800 0 800 0 0 800 0 800 -800 0 -800 0 0 -800z
m1570 0 l0 -770 -770 0 -770 0 0 770 0 770 770 0 770 0 0 -770z"/>
<path d="M80 810 l0 -740 740 0 740 0 0 740 0 740 -740 0 -740 0 0 -740z m915
685 c196 -50 366 -188 455 -370 56 -112 74 -190 74 -315 0 -125 -18 -203 -74
-315 -90 -184 -258 -319 -460 -372 -87 -23 -253 -23 -340 0 -202 53 -370 188
-460 372 -138 279 -87 596 131 814 177 176 433 247 674 186z"/>
<path d="M788 1237 l-3 -234 -30 -49 c-44 -71 -109 -108 -188 -108 -131 1
-221 90 -221 219 0 129 90 219 219 219 62 0 109 -18 153 -57 l22 -20 0 126 c0
145 6 137 -93 111 -233 -60 -423 -264 -471 -506 -20 -97 -20 -159 0 -256 48
-242 238 -446 471 -506 99 -26 93 -34 93 111 l0 126 -22 -20 c-44 -39 -91 -57
-153 -57 -129 0 -219 90 -219 219 0 130 90 218 221 219 79 0 144 -37 188 -108
l30 -49 3 -234 4 -233 39 0 c122 0 283 59 396 144 147 112 253 327 253 516 0
189 -106 404 -253 516 -113 85 -274 144 -396 144 l-39 0 -4 -233z m389 25 c77
-40 117 -108 117 -197 0 -88 -41 -158 -114 -195 -80 -40 -156 -35 -231 16
l-49 33 0 -109 0 -109 49 33 c153 103 345 4 345 -179 0 -129 -90 -219 -219
-219 -75 0 -134 29 -175 86 -48 66 -52 95 -48 412 l3 293 30 48 c17 26 42 57
56 67 67 50 161 58 236 20z"/>
<path d="M1029 1231 c-92 -30 -140 -116 -117 -210 28 -110 163 -161 261 -96
98 64 94 222 -6 284 -39 24 -101 34 -138 22z"/>
<path d="M1034 720 c-107 -25 -163 -160 -105 -254 90 -146 315 -82 315 89 0
111 -102 191 -210 165z"/>
<path d="M513 1229 c-18 -5 -48 -25 -68 -44 -123 -124 -7 -326 164 -283 110
28 161 163 96 261 -37 56 -125 87 -192 66z"/>
<path d="M525 721 c-148 -36 -177 -232 -47 -313 72 -45 181 -21 227 49 40 60
37 144 -6 204 -32 46 -116 74 -174 60z"/>
</g>
</svg>
